<?xml version="1.0" encoding="UTF-8"?>
<svg id="Layer_1" xmlns="http://www.w3.org/2000/svg" version="1.1" viewBox="0 0 2500 2500">
  <!-- Generator: Adobe Illustrator 29.8.3, SVG Export Plug-In . SVG Version: 2.1.1 Build 3)  -->
  <defs>
    <style>
      .st0 {
        fill: #1879bf;
        fill-rule: evenodd;
      }

      .st1 {
        fill: #fff;
      }
    </style>
  </defs>
  <path class="st1" d="M2389.71,1711.3v-922.59H110.29v922.59h2279.41Z"/>
  <path class="st0" d="M333.19,877.7h247.76l152.19,514.98h2.1l104.25-514.98h187.27l-157.36,742.64h-246.93l-155.26-513.86h-2.1l-103.27,513.86h-187.27l158.62-742.64h0ZM1100.12,877.7h198.85l-58.4,284.12h235.04l58.57-284.12h198.85l-154.26,742.64h-198.85l65.94-318.07h-235.19l-65.95,318.07h-198.88l154.29-742.64h0ZM2256.41,1045.83c-38.3-18.03-90.44-33.95-163.8-33.95-78.67,0-142.54,11.61-142.54,71.27,0,105.22,288.3,65.95,288.3,291.52,0,205.29-190.5,258.51-362.8,258.51-76.57,0-164.91-18.16-229.73-38.43l46.81-151.05c39.26,25.59,118.08,42.61,182.93,42.61s158.48-11.72,158.48-88.31c0-119.21-288.3-74.5-288.3-283.97,0-191.59,168.13-249.03,330.94-249.03,91.53,0,177.62,9.64,227.66,32.97l-47.94,147.87h0Z"/>
</svg>